<?xml version="1.0" standalone="no"?>
<!DOCTYPE svg PUBLIC "-//W3C//DTD SVG 20010904//EN"
 "http://www.w3.org/TR/2001/REC-SVG-20010904/DTD/svg10.dtd">
<svg version="1.0" xmlns="http://www.w3.org/2000/svg"
 width="96.000000pt" height="96.000000pt" viewBox="0 0 96.000000 96.000000"
 preserveAspectRatio="xMidYMid meet">

<g transform="translate(0.000000,96.000000) scale(0.100000,-0.100000)"
fill="#000000" stroke="none">
<path d="M120 794 c1 -13 80 -71 113 -83 46 -18 82 -13 143 20 33 17 75 37 94
44 19 8 28 14 19 14 -8 1 -51 -17 -94 -39 -43 -22 -92 -40 -107 -40 -40 0 -88
22 -131 60 -20 18 -37 28 -37 24z"/>
<path d="M517 755 c4 -19 -2 -27 -35 -44 -42 -21 -71 -50 -38 -38 10 4 25 7
34 8 12 0 13 2 4 6 -9 3 -3 12 17 24 30 18 41 51 22 63 -4 3 -6 -5 -4 -19z"/>
<path d="M535 693 c73 -6 85 -12 85 -38 0 -15 -7 -26 -21 -30 -11 -4 -18 -9
-16 -12 12 -12 47 19 47 42 0 32 -27 45 -87 43 -46 -1 -46 -2 -8 -5z"/>
<path d="M482 612 c-9 -6 0 -12 27 -20 22 -7 52 -27 70 -47 35 -40 41 -37 11
5 -11 16 -37 35 -56 42 -34 12 -35 13 -13 19 l24 7 -25 1 c-14 0 -31 -3 -38
-7z"/>
<path d="M712 585 c4 -6 12 -22 17 -36 6 -15 10 -18 10 -8 1 9 -7 25 -16 36
-10 10 -15 14 -11 8z"/>
<path d="M666 538 c11 -20 14 -43 10 -67 -4 -25 -2 -31 4 -21 14 22 12 57 -5
90 -9 17 -18 30 -21 30 -2 0 3 -14 12 -32z"/>
<path d="M70 520 c8 -5 20 -10 25 -10 6 0 3 5 -5 10 -8 5 -19 10 -25 10 -5 0
-3 -5 5 -10z"/>
<path d="M385 505 c-28 -27 -31 -68 -11 -125 l13 -35 7 45 c9 55 21 70 57 70
28 0 29 -1 29 -54 0 -54 0 -55 -32 -59 -18 -2 13 -5 69 -5 115 -2 139 -8 122
-28 -14 -17 -3 -34 22 -34 21 0 26 -25 7 -33 -10 -4 -10 -6 0 -6 17 -1 25 24
18 55 -5 18 -19 31 -45 42 -33 14 -40 23 -49 61 -9 38 -8 47 6 58 15 11 15 11
-4 7 -15 -4 -31 5 -56 30 -31 31 -43 36 -82 36 -36 0 -52 -6 -71 -25z m142
-10 l28 -24 -64 -1 c-69 0 -101 -17 -101 -52 0 -11 -4 -16 -10 -13 -18 11 -11
74 10 95 30 30 100 27 137 -5z m42 -53 c5 -9 12 -34 16 -55 l7 -37 -51 0 -51
0 0 55 0 55 35 0 c23 0 38 -6 44 -18z m107 -150 c-9 -9 -37 8 -31 18 5 8 11 7
21 -1 8 -6 12 -14 10 -17z"/>
<path d="M742 500 c0 -14 2 -19 5 -12 2 6 2 18 0 25 -3 6 -5 1 -5 -13z"/>
<path d="M166 475 c32 -19 80 -58 106 -86 l47 -51 -21 -28 c-21 -29 -21 -61 0
-68 11 -3 11 0 1 16 -19 30 12 75 45 66 13 -3 27 -1 30 4 3 6 -2 8 -13 5 -15
-4 -33 9 -68 48 -45 49 -154 129 -176 129 -6 0 16 -16 49 -35z"/>
<path d="M731 463 c-1 -6 -4 -20 -7 -30 -5 -17 -5 -17 6 0 6 10 9 23 6 30 -3
9 -5 9 -5 0z"/>
<path d="M348 276 c-14 -31 -5 -53 26 -68 20 -9 30 -8 51 6 14 9 25 24 24 34
0 13 -3 13 -11 -5 -12 -26 -34 -36 -59 -28 -27 9 -34 43 -13 66 10 11 12 19 5
19 -6 0 -16 -11 -23 -24z"/>
<path d="M416 286 c10 -8 21 -12 24 -10 5 6 -21 24 -34 24 -6 0 -1 -6 10 -14z"/>
<path d="M528 276 c-14 -31 -5 -53 26 -68 20 -9 30 -8 51 6 14 9 25 24 24 34
0 13 -3 13 -11 -5 -12 -26 -34 -36 -59 -28 -27 9 -34 43 -13 66 10 11 12 19 5
19 -6 0 -16 -11 -23 -24z"/>
<path d="M581 297 c2 -1 13 -9 24 -17 19 -14 19 -14 6 3 -7 9 -18 17 -24 17
-6 0 -8 -1 -6 -3z"/>
<path d="M381 271 c-17 -11 -7 -41 13 -41 22 0 30 20 15 36 -9 8 -19 10 -28 5z
m29 -22 c0 -5 -7 -9 -15 -9 -15 0 -20 12 -9 23 8 8 24 -1 24 -14z"/>
<path d="M561 271 c-17 -11 -7 -41 13 -41 22 0 30 20 15 36 -9 8 -19 10 -28 5z
m29 -22 c0 -5 -7 -9 -15 -9 -15 0 -20 12 -9 23 8 8 24 -1 24 -14z"/>
</g>
</svg>
